<svg width="250" height="237" viewBox="0 0 250 237" fill="none" xmlns="http://www.w3.org/2000/svg">
<path d="M165.328 8.22807L12.5116 168.172C20.8509 185.379 33.4365 200.424 49.2019 212.032L213.812 37.5983C200.305 24.3282 183.695 14.2662 165.328 8.22807V8.22807Z" fill="white"/>
<path d="M124.936 236.218C56.5118 236.218 0.844307 183.365 0.844307 118.4C0.844307 53.4359 56.5118 0.583263 124.936 0.583263C193.36 0.583263 249.028 53.4359 249.028 118.4C249.028 183.365 193.36 236.218 124.936 236.218ZM124.936 1.40429C56.9885 1.40429 1.70906 53.8886 1.70906 118.4C1.70906 182.912 56.9885 235.397 124.936 235.397C192.884 235.397 248.163 182.912 248.163 118.4C248.163 53.8886 192.884 1.40429 124.936 1.40429Z" fill="black"/>
<path d="M37.5962 118.401C37.5962 140.393 46.7981 161.485 63.1775 177.036C79.5569 192.587 101.772 201.324 124.936 201.324V35.477C101.772 35.477 79.5569 44.2136 63.1775 59.7647C46.7981 75.3159 37.5962 96.4078 37.5962 118.401V118.401Z" fill="#648957"/>
<path d="M124.936 35.477V201.324C148.1 201.324 170.315 192.587 186.695 177.036C203.074 161.485 212.276 140.393 212.276 118.401C212.276 96.4078 203.074 75.3159 186.695 59.7647C170.315 44.2136 148.1 35.477 124.936 35.477V35.477Z" fill="#FF6363"/>
<path d="M124.936 134C131.622 134 137.043 128.854 137.043 122.506C137.043 116.157 131.622 111.011 124.936 111.011C118.25 111.011 112.83 116.157 112.83 122.506C112.83 128.854 118.25 134 124.936 134Z" fill="#2F2E41"/>
<path d="M103.306 79.2569L115.903 98.5921L128.501 117.927L123.406 120.183L118.312 122.438L110.809 100.847L103.306 79.2569Z" fill="#2F2E41"/>
<path d="M145.504 79.1754L140.012 101.305L134.519 123.434L129.237 121.608L123.955 119.783L134.73 99.4793L145.504 79.1754Z" fill="#2F2E41"/>
<path d="M103.306 79.2569L115.903 98.5921L128.501 117.927L123.406 120.183L118.312 122.438L110.809 100.847L103.306 79.2569Z" fill="#2F2E41"/>
<path d="M102.086 79.8123L103.567 116.759L105.047 153.705L101.588 153.684L98.1288 153.664L100.107 116.739L102.086 79.8123Z" fill="#2F2E41"/>
<path d="M147.918 81.4543L149.399 118.401L150.879 155.347L147.42 155.326L143.961 155.306L145.939 118.381L147.918 81.4543Z" fill="#2F2E41"/>
</svg>
